# xmcd
#
# Track frame offsets:
# 150
# 14202
# 23682
# 31562
# 45605
# 69172
# 86450
# 144630
# 158197
# 171522
# 193790
# 202547
# 211460
# 217747
# 233817
# 240500
#
# Disc length: 3442 seconds
#
#
# Revision: 0
# Processed by: cddbd v1.5.1PL0 Copyright (c) Steve Scherf et al.
# Submitted via: FreeRIP 2.942 
#
DISCID=cd0d7010
DTITLE=Gildas Moal - René Chaplain - An Disput
DYEAR=1996
DGENRE=Celtic
TTITLE0=Digor-Kalon Dans-Plinn
TTITLE1=Ton simpl
TTITLE2=Bal
TTITLE3=Ton doubl
TTITLE4=D'an ugent eus a viz meurzh - Nouel ar rouanez
TTITLE5=Ton disanv
TTITLE6=An disput
TTITLE7=Robardig
TTITLE8=Kost' ar c'hoad
TTITLE9=Baleadenn e Bro-Dreger
TTITLE10=Bonom kozh - Suite Loudéac
TTITLE11=Ronde 1
TTITLE12=Balen
TTITLE13=Ronde 2
TTITLE14=Riqueniée
TTITLE15=Dilostan ar wiz - Ton Bale an Degemer
EXTD=
EXTT0=
EXTT1=
EXTT2=
EXTT3=
EXTT4=
EXTT5=
EXTT6=
EXTT7=
EXTT8=
EXTT9=
EXTT10=
EXTT11=
EXTT12=
EXTT13=
EXTT14=
EXTT15=
PLAYORDER=
